<svg xmlns="http://www.w3.org/2000/svg" width="660" height="924" viewBox="0 0 660 924">
  <defs><linearGradient id="bg" x1="0" y1="0" x2="1" y2="1">
    <stop offset="0" stop-color="#2a1a5e"/><stop offset="1" stop-color="#0d0a2c"/>
  </linearGradient></defs>
  <rect width="660" height="924" rx="30" fill="url(#bg)"/>
  <rect x="18" y="18" width="624" height="888" rx="22" fill="none" stroke="#fbbf24" stroke-width="4"/>
  <path d="M470 180 a70 70 0 1 0 30 133 a55 55 0 1 1 -30 -133 Z" fill="#fbbf24"/>
  <circle cx="330" cy="430" r="120" fill="#d9a066"/>
  <ellipse cx="248" cy="352" rx="42" ry="70" fill="#a9744f" transform="rotate(-20 248 352)"/>
  <ellipse cx="412" cy="352" rx="42" ry="70" fill="#a9744f" transform="rotate(20 412 352)"/>
  <ellipse cx="330" cy="472" rx="66" ry="50" fill="#f3d5ae"/>
  <circle cx="292" cy="412" r="14" fill="#3b2b20"/><circle cx="368" cy="412" r="14" fill="#3b2b20"/>
  <ellipse cx="330" cy="458" rx="17" ry="12" fill="#3b2b20"/>
  <text x="330" y="700" text-anchor="middle" font-family="serif" font-size="60" fill="#fbbf24">태양의 전령</text>
  <text x="330" y="780" text-anchor="middle" font-family="serif" font-size="36" fill="#a78bfa">해피</text>
  <text x="330" y="860" text-anchor="middle" font-family="serif" font-size="22" fill="#67e8f9">(placeholder — GEMINI_API_KEY 설정 시 실제 일러스트 생성)</text>
</svg>